<?xml version="1.0" encoding="utf-8"?>
<!-- Generator: Adobe Illustrator 18.0.0, SVG Export Plug-In . SVG Version: 6.00 Build 0)  -->
<!DOCTYPE svg PUBLIC "-//W3C//DTD SVG 1.1//EN" "http://www.w3.org/Graphics/SVG/1.1/DTD/svg11.dtd">
<svg version="1.1" id="Layer_1" xmlns="http://www.w3.org/2000/svg" xmlns:xlink="http://www.w3.org/1999/xlink" x="0px" y="0px"
	 viewBox="16 120 612 414" enable-background="new 16 120 612 414" xml:space="preserve">
<g>
	<path fill="#252F3E" d="M189.9,284.5c0,7.4,0.8,13.5,2.2,17.9c1.6,4.4,3.6,9.3,6.4,14.5c1,1.6,1.4,3.2,1.4,4.6c0,2-1.2,4-3.8,6
		l-12.7,8.5c-1.8,1.2-3.6,1.8-5.2,1.8c-2,0-4-1-6-2.8c-2.8-3-5.2-6.2-7.2-9.5c-2-3.4-4-7.2-6.2-11.9c-15.7,18.5-35.4,27.8-59.2,27.8
		c-16.9,0-30.4-4.8-40.3-14.5c-9.9-9.7-14.9-22.5-14.9-38.7c0-17.1,6-31,18.3-41.5c12.3-10.5,28.6-15.7,49.3-15.7
		c6.8,0,13.9,0.6,21.3,1.6c7.4,1,15.1,2.6,23.2,4.4v-14.7c0-15.3-3.2-26-9.5-32.2c-6.4-6.2-17.3-9.3-32.8-9.3
		c-7,0-14.3,0.8-21.7,2.6c-7.4,1.8-14.7,4-21.7,6.8c-3.2,1.4-5.6,2.2-7,2.6s-2.4,0.6-3.2,0.6c-2.8,0-4.2-2-4.2-6.2v-9.9
		c0-3.2,0.4-5.6,1.4-7s2.8-2.8,5.6-4.2c7-3.6,15.5-6.6,25.4-9.1c9.9-2.6,20.3-3.8,31.4-3.8c24,0,41.5,5.4,52.7,16.3
		c11.1,10.9,16.7,27.4,16.7,49.5v65.2H189.9z M108.2,315.1c6.6,0,13.5-1.2,20.7-3.6c7.2-2.4,13.7-6.8,19.1-12.9
		c3.2-3.8,5.6-8.1,6.8-12.9c1.2-4.8,2-10.7,2-17.5v-8.5c-5.8-1.4-12.1-2.6-18.5-3.4c-6.4-0.8-12.7-1.2-18.9-1.2
		c-13.5,0-23.4,2.6-30,8.1c-6.6,5.4-9.9,13.1-9.9,23.2c0,9.5,2.4,16.5,7.4,21.3C91.9,312.7,98.9,315.1,108.2,315.1z M269.9,336.8
		c-3.6,0-6-0.6-7.7-2c-1.6-1.2-3-4-4.2-7.9l-47.3-155.6c-1.2-4-1.8-6.6-1.8-8.1c0-3.2,1.6-5,4.8-5h19.7c3.8,0,6.4,0.6,7.9,2
		c1.6,1.2,2.8,4,4,7.9l33.8,133.3l31.4-133.3c1-4,2.2-6.6,3.8-7.9c1.6-1.2,4.4-2,8.1-2h16.1c3.8,0,6.4,0.6,8.1,2
		c1.6,1.2,3,4,3.8,7.9L382.2,303L417,168.1c1.2-4,2.6-6.6,4-7.9c1.6-1.2,4.2-2,7.9-2h18.7c3.2,0,5,1.6,5,5c0,1-0.2,2-0.4,3.2
		c-0.2,1.2-0.6,2.8-1.4,5l-48.5,155.6c-1.2,4-2.6,6.6-4.2,7.9s-4.2,2-7.6,2h-17.3c-3.8,0-6.4-0.6-8.1-2s-3-4-3.8-8.1l-31.2-129.8
		l-31,129.6c-1,4-2.2,6.6-3.8,8.1c-1.6,1.4-4.4,2-8.1,2H269.9z M528.5,342.3c-10.5,0-20.9-1.2-31-3.6c-10.1-2.4-17.9-5-23.2-8.1
		c-3.2-1.8-5.4-3.8-6.2-5.6c-0.8-1.8-1.2-3.8-1.2-5.6V309c0-4.2,1.6-6.2,4.6-6.2c1.2,0,2.4,0.2,3.6,0.6c1.2,0.4,3,1.2,5,2
		c6.8,3,14.3,5.4,22.1,7c8.1,1.6,15.9,2.4,24,2.4c12.7,0,22.5-2.2,29.4-6.6s10.5-10.9,10.5-19.1c0-5.6-1.8-10.3-5.4-14.1
		c-3.6-3.8-10.5-7.2-20.3-10.5l-29.2-9.1c-14.7-4.6-25.6-11.5-32.2-20.5c-6.6-8.9-10.1-18.7-10.1-29.2c0-8.5,1.8-15.9,5.4-22.3
		s8.5-12.1,14.5-16.5c6-4.6,12.9-8.1,20.9-10.5s16.5-3.4,25.4-3.4c4.4,0,9.1,0.2,13.5,0.8c4.6,0.6,8.9,1.4,13.1,2.2
		c4,1,7.9,2,11.5,3.2c3.6,1.2,6.4,2.4,8.5,3.6c2.8,1.6,4.8,3.2,6,5c1.2,1.6,1.8,3.8,1.8,6.6v9.5c0,4.2-1.6,6.4-4.6,6.4
		c-1.6,0-4.2-0.8-7.7-2.4c-11.5-5.2-24.4-7.9-38.7-7.9c-11.5,0-20.5,1.8-26.8,5.6c-6.2,3.8-9.5,9.7-9.5,17.9c0,5.6,2,10.5,6,14.3
		c4,3.8,11.5,7.6,22.1,11.1l28.6,9.1c14.5,4.6,25,11.1,31.2,19.3c6.2,8.3,9.3,17.7,9.3,28.2c0,8.7-1.8,16.5-5.2,23.4
		c-3.6,6.8-8.5,12.9-14.7,17.7c-6.2,5-13.7,8.7-22.3,11.3C548.3,340.8,538.8,342.3,528.5,342.3z"/>
	<g>
		<path fill="#FF9900" d="M566.6,440.1C500.4,489,404.1,515,321.4,515C205.4,515,101,472.1,22,400.8c-6.2-5.6-0.6-13.3,6.8-8.9
			c85.4,49.5,190.6,79.5,299.6,79.5c73.5,0,154.2-15.3,228.5-46.7C568,419.8,577.5,432,566.6,440.1z"/>
		<path fill="#FF9900" d="M594.2,408.7c-8.5-10.9-56-5.2-77.5-2.6c-6.4,0.8-7.4-4.8-1.6-9.1c37.8-26.6,100.1-18.9,107.3-10.1
			c7.2,9.1-2,71.3-37.4,101.1c-5.4,4.6-10.7,2.2-8.3-3.8C584.7,464.3,602.6,419.4,594.2,408.7z"/>
	</g>
</g>
</svg>
