<?xml version="1.0" encoding="UTF-8"?>
<svg id="Layer_1" data-name="Layer 1" xmlns="http://www.w3.org/2000/svg" viewBox="0 0 316.03 100.4"><defs><style>.cls-1{fill:none;}.cls-2{fill:#95c93d;fill-rule:evenodd;}.cls-3{fill:#fff;}</style></defs><title>Toradex Global Logo Reverse Transparent</title><rect class="cls-1" width="316.03" height="100.4"/><g id="_Group_" data-name="&lt;Group&gt;"><g id="_Group_2" data-name="&lt;Group&gt;"><path id="_Compound_Path_" data-name="&lt;Compound Path&gt;" class="cls-2" d="M242.15,348.17a4.1,4.1,0,1,1,4.1-4.42A14.51,14.51,0,0,0,217.82,340a4.44,4.44,0,0,0-.55,0,4.1,4.1,0,1,0,0,8.2,4.33,4.33,0,0,0,.52,0,14.53,14.53,0,0,0,28.47-3.79A4.11,4.11,0,0,1,242.15,348.17Zm-12.44,0a4.1,4.1,0,1,1,4.11-4.1A4.11,4.11,0,0,1,229.71,348.17Z" transform="translate(-192.57 -301.3)"/></g><g id="_Group_3" data-name="&lt;Group&gt;"><ellipse id="_Path_" data-name="&lt;Path&gt;" class="cls-3" cx="62.02" cy="42.76" rx="4.11" ry="4.1"/></g><g id="_Group_4" data-name="&lt;Group&gt;"><ellipse id="_Path_2" data-name="&lt;Path&gt;" class="cls-3" cx="74.47" cy="42.76" rx="4.11" ry="4.1"/></g><g id="_Group_5" data-name="&lt;Group&gt;"><g id="_Group_6" data-name="&lt;Group&gt;"><polygon id="_Path_3" data-name="&lt;Path&gt;" class="cls-3" points="88.1 56.42 93.04 56.42 93.04 25.23 106.78 25.23 106.78 20.67 76.26 20.67 72.62 25.23 88.1 25.23 88.1 56.42"/></g><g id="_Group_7" data-name="&lt;Group&gt;"><path id="_Compound_Path_2" data-name="&lt;Compound Path&gt;" class="cls-3" d="M307.62,329.56a14.52,14.52,0,1,0,14.51,14.58A14.47,14.47,0,0,0,307.62,329.56Zm0,24.71c-5.82,0-9.81-4.57-9.81-10.19s4-10.19,9.81-10.19,9.81,4.62,9.81,10.19S313.44,354.27,307.62,354.27Z" transform="translate(-192.57 -301.3)"/></g><g id="_Group_8" data-name="&lt;Group&gt;"><polygon id="_Path_4" data-name="&lt;Path&gt;" class="cls-3" points="268.06 41.78 278.17 28.9 272.29 28.9 265.06 38.27 257.83 28.9 252.08 28.9 262.12 41.78 250.37 56.42 256.25 56.42 265.06 45.23 273.82 56.42 279.51 56.42 268.06 41.78"/></g><g id="_Group_9" data-name="&lt;Group&gt;"><path id="_Path_5" data-name="&lt;Path&gt;" class="cls-3" d="M345.23,334.64a18.28,18.28,0,0,1,2.75-3.52,14.55,14.55,0,0,0-21.12,12.94v13.66h4.7V344.06c0-5.56,4-10.17,9.81-10.17A9.93,9.93,0,0,1,345.23,334.64Z" transform="translate(-192.57 -301.3)"/></g><g id="_Group_10" data-name="&lt;Group&gt;"><path id="_Compound_Path_3" data-name="&lt;Compound Path&gt;" class="cls-3" d="M361.85,358.6a14.52,14.52,0,0,0,9.81-3.76v2.88h4.7V344.14a14.51,14.51,0,1,0-14.51,14.46Zm0-24.71c5.81,0,9.81,4.62,9.81,10.22s-4,10.16-9.81,10.16S352,349.7,352,344.08,356,333.89,361.85,333.89Z" transform="translate(-192.57 -301.3)"/></g><g id="_Group_11" data-name="&lt;Group&gt;"><path id="_Compound_Path_4" data-name="&lt;Compound Path&gt;" class="cls-3" d="M409.37,343.92V322h-4.7v11.37a14.54,14.54,0,1,0,4.7,10.79Zm-14.51,10.34c-5.82,0-9.81-4.57-9.81-10.19s4-10.19,9.81-10.19,9.8,4.62,9.81,10.19S400.68,354.27,394.86,354.27Z" transform="translate(-192.57 -301.3)"/></g><g id="_Group_12" data-name="&lt;Group&gt;"><path id="_Compound_Path_5" data-name="&lt;Compound Path&gt;" class="cls-3" d="M436,351.16a9.81,9.81,0,0,1-16.77-4.76h23.92a15.28,15.28,0,0,0,.17-2.27,14.4,14.4,0,1,0-1.79,7Zm-7.19-17.27a9.63,9.63,0,0,1,9.57,7.83H419.21A9.62,9.62,0,0,1,428.78,333.89Z" transform="translate(-192.57 -301.3)"/></g></g><g id="_Group_13" data-name="&lt;Group&gt;"><path id="_Compound_Path_6" data-name="&lt;Compound Path&gt;" class="cls-3" d="M286.48,370.1a4.28,4.28,0,0,0-2.17-.58,1.86,1.86,0,0,0-2,1.89c0,.82.33,1.33,2.15,2.38s2.62,2.24,2.62,3.69a3.41,3.41,0,0,1-3.69,3.6,6.32,6.32,0,0,1-2.66-.55v-1.66a5.26,5.26,0,0,0,2.42.82,2.07,2.07,0,0,0,2.26-2c0-1-.25-1.55-2-2.58-2.29-1.38-2.8-2.17-2.8-3.8,0-2.09,1.6-3.19,3.53-3.19a6.45,6.45,0,0,1,2.29.42Z" transform="translate(-192.57 -301.3)"/><path id="_Compound_Path_7" data-name="&lt;Compound Path&gt;" class="cls-3" d="M297.91,381h-1.75l-1.95-7.84h0L292.4,381h-1.75l-2.46-9.28h1.6l1.77,7.75h0l1.77-7.75h1.82l1.84,7.75h0l1.75-7.75h1.53Z" transform="translate(-192.57 -301.3)"/><path id="_Compound_Path_8" data-name="&lt;Compound Path&gt;" class="cls-3" d="M303.46,367.86v1.82h-1.67v-1.82Zm-1.6,3.82h1.53V381h-1.53Z" transform="translate(-192.57 -301.3)"/><path id="_Compound_Path_9" data-name="&lt;Compound Path&gt;" class="cls-3" d="M305.46,379.16a4.23,4.23,0,0,0,2.18.69c1.16,0,1.77-.6,1.77-1.31s-.33-1.07-1.18-1.46l-1-.46c-1.33-.6-1.82-1.2-1.82-2.38a2.73,2.73,0,0,1,3-2.69,5.61,5.61,0,0,1,2,.33l-.07,1.31a4.48,4.48,0,0,0-1.82-.4c-1,0-1.53.55-1.53,1.27s.55,1.16,1.57,1.57l.55.22a2.52,2.52,0,0,1,1.84,2.37,2.66,2.66,0,0,1-3,2.88,5.56,5.56,0,0,1-2.51-.55Z" transform="translate(-192.57 -301.3)"/><path id="_Compound_Path_10" data-name="&lt;Compound Path&gt;" class="cls-3" d="M312.3,379.16a4.23,4.23,0,0,0,2.18.69c1.16,0,1.77-.6,1.77-1.31s-.33-1.07-1.18-1.46l-1-.46c-1.33-.6-1.82-1.2-1.82-2.38a2.73,2.73,0,0,1,3-2.69,5.61,5.61,0,0,1,2,.33l-.07,1.31a4.48,4.48,0,0,0-1.82-.4c-1,0-1.53.55-1.53,1.27s.55,1.16,1.57,1.57l.55.22a2.52,2.52,0,0,1,1.84,2.37,2.66,2.66,0,0,1-3,2.88,5.56,5.56,0,0,1-2.51-.55Z" transform="translate(-192.57 -301.3)"/><path id="_Compound_Path_11" data-name="&lt;Compound Path&gt;" class="cls-3" d="M319.07,378.93h1.75v2h-1.75Z" transform="translate(-192.57 -301.3)"/><path id="_Compound_Path_12" data-name="&lt;Compound Path&gt;" class="cls-3" d="M327.44,368.26h5.92v1.38H329v4h4.11v1.38H329v4.51h4.55V381h-6.15Z" transform="translate(-192.57 -301.3)"/><path id="_Compound_Path_13" data-name="&lt;Compound Path&gt;" class="cls-3" d="M335.69,373.68c0-.67-.05-1.35-.07-2h1.47l.05,1.38h0a2.43,2.43,0,0,1,4.48-.05,2.45,2.45,0,0,1,2.26-1.46c1.6,0,2.69.93,2.69,3V381h-1.53v-6.37c0-1.18-.51-1.73-1.42-1.73-1.13,0-1.75.69-1.75,2.37V381h-1.53v-6.37c0-1.18-.51-1.73-1.42-1.73-1.13,0-1.75.69-1.75,2.37V381h-1.53Z" transform="translate(-192.57 -301.3)"/><path id="_Compound_Path_14" data-name="&lt;Compound Path&gt;" class="cls-3" d="M348.79,367.31h1.53V373h0a2.56,2.56,0,0,1,2.37-1.4c1.91,0,3.2,1.57,3.2,4.77s-1.29,4.77-3.2,4.77a2.63,2.63,0,0,1-2.44-1.49h0l-.05,1.37h-1.47c0-.56.07-1.15.07-1.71Zm3.57,12.54c1.4,0,2-1.2,2-3.53s-.64-3.53-2-3.53-2,1.2-2,3.53S351,379.85,352.36,379.85Z" transform="translate(-192.57 -301.3)"/><path id="_Compound_Path_15" data-name="&lt;Compound Path&gt;" class="cls-3" d="M358.95,376.78c0,2.15.84,3.15,2.53,3.15a4,4,0,0,0,2.13-.76l.07,1.38a6.28,6.28,0,0,1-2.6.55c-2.46,0-3.73-1.86-3.73-4.77s1.27-4.77,3.59-4.77c2.09,0,3.26,1.67,3.26,4.4v.82Zm3.71-1.16c0-1.93-.6-2.89-1.82-2.89-1,0-1.86.73-1.89,2.89Z" transform="translate(-192.57 -301.3)"/><path id="_Compound_Path_16" data-name="&lt;Compound Path&gt;" class="cls-3" d="M372.67,379.25c0,.56.06,1.15.07,1.71h-1.47l-.05-1.37h0a2.63,2.63,0,0,1-2.44,1.49c-1.91,0-3.2-1.57-3.2-4.77s1.29-4.77,3.2-4.77a2.56,2.56,0,0,1,2.37,1.4h0v-5.64h1.53Zm-3.57-6.46c-1.4,0-2,1.2-2,3.53s.64,3.53,2,3.53,2-1.2,2-3.53S370.5,372.79,369.1,372.79Z" transform="translate(-192.57 -301.3)"/><path id="_Compound_Path_17" data-name="&lt;Compound Path&gt;" class="cls-3" d="M381.53,379.25c0,.56.05,1.15.07,1.71h-1.47l-.05-1.37h0a2.63,2.63,0,0,1-2.44,1.49c-1.91,0-3.2-1.57-3.2-4.77s1.29-4.77,3.2-4.77A2.56,2.56,0,0,1,380,373h0v-5.64h1.53ZM378,372.79c-1.4,0-2,1.2-2,3.53s.64,3.53,2,3.53,2-1.2,2-3.53S379.37,372.79,378,372.79Z" transform="translate(-192.57 -301.3)"/><path id="_Compound_Path_18" data-name="&lt;Compound Path&gt;" class="cls-3" d="M384.86,376.78c0,2.15.84,3.15,2.53,3.15a4,4,0,0,0,2.13-.76l.07,1.38a6.28,6.28,0,0,1-2.6.55c-2.46,0-3.73-1.86-3.73-4.77s1.27-4.77,3.59-4.77c2.09,0,3.26,1.67,3.26,4.4v.82Zm3.71-1.16c0-1.93-.6-2.89-1.82-2.89-1,0-1.86.73-1.89,2.89Z" transform="translate(-192.57 -301.3)"/><path id="_Compound_Path_19" data-name="&lt;Compound Path&gt;" class="cls-3" d="M398.58,379.25c0,.56.05,1.15.07,1.71h-1.47l-.05-1.37h0a2.63,2.63,0,0,1-2.44,1.49c-1.91,0-3.2-1.57-3.2-4.77s1.29-4.77,3.2-4.77A2.56,2.56,0,0,1,397,373h0v-5.64h1.53ZM395,372.79c-1.4,0-2,1.2-2,3.53s.64,3.53,2,3.53,2-1.2,2-3.53S396.42,372.79,395,372.79Z" transform="translate(-192.57 -301.3)"/><path id="_Compound_Path_20" data-name="&lt;Compound Path&gt;" class="cls-3" d="M401,378.93h1.75v2H401Z" transform="translate(-192.57 -301.3)"/><path id="_Compound_Path_21" data-name="&lt;Compound Path&gt;" class="cls-3" d="M416.84,380.71a8,8,0,0,1-2.31.38c-4,0-5.71-3.06-5.71-6.5,0-4,2.31-6.46,5.62-6.46a5.77,5.77,0,0,1,2.4.45v1.57a4.37,4.37,0,0,0-2.38-.64c-2.07,0-4,1.66-4,4.75,0,3.28,1.31,5.44,4.08,5.44a4.56,4.56,0,0,0,2.28-.6Z" transform="translate(-192.57 -301.3)"/><path id="_Compound_Path_22" data-name="&lt;Compound Path&gt;" class="cls-3" d="M422.2,371.55c2.46,0,3.73,1.86,3.73,4.77s-1.27,4.77-3.73,4.77-3.73-1.86-3.73-4.77S419.75,371.55,422.2,371.55Zm0,8.3c1.46,0,2.13-1.2,2.13-3.53s-.67-3.53-2.13-3.53-2.13,1.2-2.13,3.53S420.75,379.85,422.2,379.85Z" transform="translate(-192.57 -301.3)"/><path id="_Compound_Path_23" data-name="&lt;Compound Path&gt;" class="cls-3" d="M427.81,373.68c0-.67-.05-1.35-.07-2h1.47l.05,1.38h0a2.43,2.43,0,0,1,4.48-.05,2.45,2.45,0,0,1,2.26-1.46c1.6,0,2.69.93,2.69,3V381H437.2v-6.37c0-1.18-.51-1.73-1.42-1.73-1.13,0-1.75.69-1.75,2.37V381H432.5v-6.37c0-1.18-.51-1.73-1.42-1.73-1.13,0-1.75.69-1.75,2.37V381h-1.53Z" transform="translate(-192.57 -301.3)"/><path id="_Compound_Path_24" data-name="&lt;Compound Path&gt;" class="cls-3" d="M440.91,373.39c0-.56-.05-1.15-.07-1.71h1.47l.05,1.37h0a2.63,2.63,0,0,1,2.44-1.49c1.91,0,3.2,1.57,3.2,4.77s-1.29,4.77-3.2,4.77a2.56,2.56,0,0,1-2.37-1.4h0v5.21h-1.53Zm3.57,6.46c1.4,0,2-1.2,2-3.53s-.64-3.53-2-3.53-2,1.2-2,3.53S443.08,379.85,444.48,379.85Z" transform="translate(-192.57 -301.3)"/><path id="_Compound_Path_25" data-name="&lt;Compound Path&gt;" class="cls-3" d="M456.47,379c0,.67.05,1.35.07,2h-1.47l-.05-1.38h0a2.38,2.38,0,0,1-2.35,1.51c-1.62,0-2.71-.93-2.71-3v-6.44h1.53v6c0,1.47.55,2.11,1.53,2.11,1.2,0,2-.84,2-2.51v-5.59h1.53Z" transform="translate(-192.57 -301.3)"/><path id="_Compound_Path_26" data-name="&lt;Compound Path&gt;" class="cls-3" d="M462.89,380.86a4.28,4.28,0,0,1-1.29.24c-1.4,0-2.15-.56-2.15-2.2v-6H458v-1.24h1.47v-1.89l1.53-.46v2.35h1.91v1.24H461v5.48c0,1.06.27,1.46,1,1.46a2.2,2.2,0,0,0,.95-.24Z" transform="translate(-192.57 -301.3)"/><path id="_Compound_Path_27" data-name="&lt;Compound Path&gt;" class="cls-3" d="M466,367.86v1.82h-1.67v-1.82Zm-1.6,3.82H466V381h-1.53Z" transform="translate(-192.57 -301.3)"/><path id="_Compound_Path_28" data-name="&lt;Compound Path&gt;" class="cls-3" d="M468.44,373.68c0-.67-.05-1.35-.07-2h1.47l.05,1.38h0a2.38,2.38,0,0,1,2.35-1.51c1.62,0,2.71.93,2.71,3V381h-1.53v-6c0-1.47-.55-2.11-1.53-2.11-1.2,0-2,.84-2,2.51V381h-1.53Z" transform="translate(-192.57 -301.3)"/><path id="_Compound_Path_29" data-name="&lt;Compound Path&gt;" class="cls-3" d="M484,381.36c0,2.57-1.93,3.64-4,3.64a8.88,8.88,0,0,1-2.71-.56l.07-1.55a5.14,5.14,0,0,0,2.55.8c1.87,0,2.6-1.11,2.6-2.71v-1.46h0a2.71,2.71,0,0,1-2.44,1.57c-1.91,0-3.2-1.57-3.2-4.77s1.29-4.77,3.37-4.77a2.69,2.69,0,0,1,2.28,1.47h0l.05-1.35h1.47c0,.55-.07,1.13-.07,1.69Zm-3.57-1.51c1.4,0,2-1.2,2-3.53s-.64-3.53-2-3.53-2,1.2-2,3.53S479,379.85,480.44,379.85Z" transform="translate(-192.57 -301.3)"/><path id="_Compound_Path_30" data-name="&lt;Compound Path&gt;" class="cls-3" d="M486.39,378.93h1.75v2h-1.75Z" transform="translate(-192.57 -301.3)"/></g></g></svg>