<?xml version="1.0" encoding="utf-8"?>
<!-- Generator: Adobe Illustrator 18.0.0, SVG Export Plug-In . SVG Version: 6.00 Build 0)  -->
<!DOCTYPE svg PUBLIC "-//W3C//DTD SVG 1.1//EN" "http://www.w3.org/Graphics/SVG/1.1/DTD/svg11.dtd">
<svg version="1.1" id="Layer_1" xmlns="http://www.w3.org/2000/svg" xmlns:xlink="http://www.w3.org/1999/xlink" x="0px" y="0px"
	 viewBox="41.8 239.6 528.4 312.8" enable-background="new 41.8 239.6 528.4 312.8" xml:space="preserve">
<g>
	<path fill="#00508C" d="M542.6,423.9H69.4c-15.2,0-27.6,12.4-27.6,27.6v1c0,15.2,12.4,27.6,27.6,27.6h473.1
		c15.2,0,27.6-12.4,27.6-27.6v-1C570.2,436.3,557.7,423.9,542.6,423.9z M541.8,467.3H70.2c-8.5,0-15.4-6.9-15.4-15.4
		s6.9-15.4,15.4-15.4h471.4c8.5,0,15.4,6.9,15.4,15.4S550.2,467.3,541.8,467.3z"/>
	<g>
		<path fill="none" stroke="#231F20" stroke-width="2" stroke-miterlimit="10" d="M179.9,419.1c0,0-1.3,3.7-2.2,3.7
			c-0.9,0-3.7-6.3-3.6-10.9c0.1-4.6,2-7.1,2.1-8.8c0.1-1.6-0.4-2.8-0.4-2.8s-1.6-0.8-3.3,0.1c-1.6,0.9-7.2,2.2-9.9,1.4
			c-2.7-0.9-6.5-1.5-7.8-2.7c-1.2-1.2-2.2-1.1-1.2-1.9c1.1-0.8,3.5-0.7,4.1-1.4s1-0.3,0.1-1.4c-1-1.1-3.6-2.2-2.4-3.1
			s1.2-0.8,1.2-0.8s2.4,0.9,2.9,0.2c0.3-0.7-0.2-1.6-0.5-2.2c-0.2-0.6-0.2-0.6-0.2-0.6s-1.2-1.7-0.5-1.8c0.7-0.1,1.6-0.9,3-0.3
			c1.4,0.5,1.7,0.5,1.6-0.3c-0.1-0.9-1.8-3.7-0.7-4.3c1-0.7,2.8,1.4,3.5,1.2c0.7-0.2-0.1-4,1.5-4.8c1.6-0.7,3.5,3.1,4.2,2.7
			c0.7-0.3-0.3-4.5,1.6-5c2-0.5,2.9,3.6,3.6,3.3c0.7-0.3,1.2-5,2.2-4.8c1,0.2,5,11.6,3.7,15.3c-1.3,3.7-3.1,4.8-2.8,6.5
			c0.4,1.6,1.9,2,4.3,1c2.4-1,6.1-1.5,10.3-0.5c4.3,1,7.3,1.8,8,3.4c0.7,1.6-3.9,0.7-4.2,2.1c-0.2,1.4,3.5,2.2,3,3.9
			c-0.5,1.7-3.6-0.3-4.6,1.2c-1,1.4,3,3.7,2.1,4.7c-0.9,1-4.1-1.4-5.2,0c-1.1,1.4,2.3,4.6,1.3,5.1c-1,0.5-4-2.5-5-1.8
			c-1,0.7,0.8,4.8-0.6,5.2c-1.4,0.5-3-2.9-3.9-2.4c-0.9,0.5-0.7,4.9-1.6,5.4C182.9,423.3,181.4,418.9,179.9,419.1z"/>
		<path fill="none" stroke="#231F20" stroke-width="2" stroke-miterlimit="10" d="M183.8,411.5c0,0-6.2-12.3-5.7-12.8
			c0.5-0.5,11.6,5.1,12.5,5.9"/>
		<path fill="none" stroke="#231F20" stroke-width="2" stroke-miterlimit="10" d="M165.1,392.7c0,0,12.3,7.1,13,6.1
			c0.7-1-5-13.3-5-13.3"/>
	</g>
	<g>
		<path fill="none" stroke="#231F20" stroke-width="2" stroke-miterlimit="10" d="M294.7,394.2c-1.6,2.8,2.2,6.3,3.1,9.3
			c0.9,3,1,13.6,8.8,18c7.8,4.4,16.9,0.5,21.8,0.6s7.2,0.9,8.4-0.7c1.2-1.7-3.9-5.4-5.2-8c-1.2-2.7-4.1-11.6-9.8-15.2
			c-5.7-3.6-15.7-2.4-20.2-2.6C297.2,395.4,296,391.9,294.7,394.2z"/>
		<path fill="none" stroke="#231F20" stroke-width="2" stroke-miterlimit="10" d="M295.4,393.6c0,0,7.8,5.4,13.4,7.8
			s11.2,6.5,14,8.6c2.8,2.1,8.1,6.9,10.5,8.6c2.4,1.7,3.5,2.7,3.5,2.7"/>
		<path fill="none" stroke="#231F20" stroke-width="2" stroke-miterlimit="10" d="M295.3,398.4c0,0,1.8,0.1,3.2-2.6"/>
		<path fill="none" stroke="#231F20" stroke-width="2" stroke-miterlimit="10" d="M297,401.2c0,0,2.5-0.3,4.2-3.6"/>
		<path fill="none" stroke="#231F20" stroke-width="2" stroke-miterlimit="10" d="M298.2,405.3c0,0,4.8-2.1,6.4-5.8"/>
		<path fill="none" stroke="#231F20" stroke-width="2" stroke-miterlimit="10" d="M299,409.6c0,0,5.2,0.1,9.6-8"/>
		<path fill="none" stroke="#231F20" stroke-width="2" stroke-miterlimit="10" d="M301,414.9c0,0,6.7,0.9,12.3-11.2"/>
		<path fill="none" stroke="#231F20" stroke-width="2" stroke-miterlimit="10" d="M304,419.6c0,0,8.6,0.1,14-12.6"/>
		<path fill="none" stroke="#231F20" stroke-width="2" stroke-miterlimit="10" d="M309.1,422.7c0,0,8.9-3,13.2-13"/>
		<path fill="none" stroke="#231F20" stroke-width="2" stroke-miterlimit="10" d="M317.3,423.5c0,0,7.2-5.4,8.9-10.9"/>
		<path fill="none" stroke="#231F20" stroke-width="2" stroke-miterlimit="10" d="M323.3,423.1c0,0,4.9-5.6,5.4-8"/>
		<line fill="none" stroke="#231F20" stroke-width="2" stroke-miterlimit="10" x1="327.3" y1="422.2" x2="330.8" y2="416.7"/>
		<line fill="none" stroke="#231F20" stroke-width="2" stroke-miterlimit="10" x1="330.5" y1="422.5" x2="333.3" y2="418.6"/>
	</g>
	<g>
		
			<ellipse transform="matrix(0.5387 -0.8425 0.8425 0.5387 -268.757 279.907)" fill="none" stroke="#231F20" stroke-width="2" stroke-miterlimit="10" cx="121.2" cy="385.4" rx="1.6" ry="3.4"/>
		<path fill="none" stroke="#231F20" stroke-width="2" stroke-miterlimit="10" d="M124.1,387.2c0,0-4.6,8.5-6.2,16
			c-1.6,7.5,0.7,17.7,0.7,17.7s-2.7,3.7-7.2,1.8c0,0-3.3-12-1.4-20c1.8-8,4.8-16.9,8.4-19.2"/>
	</g>
	<g>
		<path fill="none" stroke="#231F20" stroke-width="2" stroke-miterlimit="10" d="M243.5,382.9c-0.3,1.1-0.8,3.1-0.2,4.3
			c0,0-2.9,0.9-4.1,4c-1.2,3.1-1,5.8-1,5.8s-2.2,0.1-3.6,3.3c-1.4,3.2-1.3,6.6-1.3,6.6s-2.6,0.6-3.9,3.7c-1.3,3-0.8,6.1-0.8,6.1
			s-4.2,1.4-3.7,2.7c0.4,1.3,5.1,2.6,5.1,2.6s3.5,0.3,5.1,1.2c0.3,0.2,0.7,0.3,0.7-0.2c-0.1-0.7-0.1-1.9,0-2.4
			c0.1-0.9,0.3-1.2,0.3-1.2l0.4-0.4c0,0,2.7,0.1,3.7-2.2c1-2.2,0.3-5.6,0.9-6.5s3.2-1.2,4.2-4.1c1-2.9,0.5-5.2,1-5.9
			c0.5-0.7,3.4-1.8,4.2-4c0.8-2.3-0.3-4.8,0.6-5.8s3.9-1,3.6-2.7c-0.3-1.6-1.6-2.5-3.3-2.5s-1.1,0.2-3.4-0.2
			c-1.7-0.3-3.1-1.8-3.8-2.5C243.9,382.3,243.6,382.4,243.5,382.9z"/>
		<path fill="none" stroke="#231F20" stroke-width="2" stroke-miterlimit="10" d="M249.6,385.3c0,0,0.9,3.6,1.4,5.2"/>
		<line fill="none" stroke="#231F20" stroke-width="2" stroke-miterlimit="10" x1="243.3" y1="387.2" x2="246.2" y2="400.3"/>
		<line fill="none" stroke="#231F20" stroke-width="2" stroke-miterlimit="10" x1="238.2" y1="397" x2="241" y2="410.3"/>
		<line fill="none" stroke="#231F20" stroke-width="2" stroke-miterlimit="10" x1="233.3" y1="406.9" x2="236" y2="419.4"/>
		<line fill="none" stroke="#231F20" stroke-width="2" stroke-miterlimit="10" x1="228.6" y1="416.7" x2="229.4" y2="421.6"/>
	</g>
	
		<linearGradient id="SVGID_1_" gradientUnits="userSpaceOnUse" x1="-1992.2573" y1="744.123" x2="-1873.9557" y2="744.123" gradientTransform="matrix(-0.6799 -7.440363e-003 -7.440363e-003 0.6799 -1206.3544 -32.3986)">
		<stop  offset="1.281415e-003" style="stop-color:#A6A8AB"/>
		<stop  offset="1" style="stop-color:#929497;stop-opacity:0"/>
	</linearGradient>
	<polygon fill="url(#SVGID_1_)" points="62.7,448.7 143.1,455.2 104.7,526.8 	"/>
	
		<linearGradient id="SVGID_2_" gradientUnits="userSpaceOnUse" x1="-2203.5042" y1="1254.0806" x2="-2085.1895" y2="1254.0806" gradientTransform="matrix(-0.394 0.5542 0.5542 0.394 -1157.7352 1099.3651)">
		<stop  offset="1.281415e-003" style="stop-color:#A6A8AB"/>
		<stop  offset="1" style="stop-color:#929497;stop-opacity:0"/>
	</linearGradient>
	<polygon fill="url(#SVGID_2_)" points="327.2,415.4 378.4,353 415.3,425.4 	"/>
	<g>
		<circle fill="#FFFFFF" cx="420.3" cy="377.3" r="48.6"/>
		<path fill="none" stroke="#DFEEC3" stroke-miterlimit="10" d="M420.3,328.7c-26.9,0-48.6,21.8-48.6,48.6s21.8,48.6,48.6,48.6
			s48.6-21.8,48.6-48.6S447.2,328.7,420.3,328.7z M420.3,420.8c-24,0-43.5-19.4-43.5-43.5c0-24,19.4-43.5,43.5-43.5
			s43.5,19.4,43.5,43.5C463.8,401.3,444.3,420.8,420.3,420.8z"/>
		<path fill="#CAE39B" stroke="#CAE39B" stroke-miterlimit="10" d="M376.9,377.3L376.9,377.3c0-24,19.4-43.5,43.5-43.5
			c24,0,43.5,19.4,43.5,43.5l0,0h5.2l0,0c0-26.9-21.8-48.6-48.6-48.6s-48.6,21.8-48.6,48.6l0,0H376.9z"/>
		<path fill="#96C837" stroke="#96C837" stroke-miterlimit="10" d="M454.6,411.6c8.8-8.8,14.2-20.9,14.2-34.3h-5.1
			c0,12-4.9,22.8-12.7,30.7L454.6,411.6z"/>
		<path fill="#EAF4D7" stroke="#EAF4D7" stroke-miterlimit="10" d="M389.6,408c-7.9-7.9-12.7-18.7-12.7-30.7h-5.2
			c0,13.4,5.4,25.6,14.2,34.3L389.6,408z"/>
		<circle fill="#00508C" cx="420.3" cy="377.2" r="4.8"/>
		<g>
			<line fill="none" x1="420.3" y1="426.2" x2="420.3" y2="414"/>
			<line fill="none" stroke="#96C837" stroke-miterlimit="10" x1="420.3" y1="328.3" x2="420.3" y2="334.2"/>
			<line fill="none" stroke="#96C837" stroke-miterlimit="10" x1="463.4" y1="377.3" x2="469.2" y2="377.2"/>
			<line fill="none" stroke="#96C837" stroke-miterlimit="10" x1="371.8" y1="377.3" x2="377.2" y2="377.2"/>
			<line fill="none" stroke="#96C837" stroke-miterlimit="10" x1="394.3" y1="403.2" x2="385.7" y2="411.8"/>
			<line fill="none" stroke="#96C837" stroke-miterlimit="10" x1="454.9" y1="342.7" x2="450.8" y2="346.8"/>
			<line fill="none" stroke="#96C837" stroke-miterlimit="10" x1="446.2" y1="403.2" x2="454.9" y2="411.8"/>
			<line fill="none" stroke="#96C837" stroke-miterlimit="10" x1="385.7" y1="342.7" x2="389.8" y2="346.8"/>
		</g>
		<text transform="matrix(1 0 0 1 393.5235 401.8946)" font-family="'MyriadPro-Regular'" font-size="8.16">0</text>
		<text transform="matrix(1 0 0 1 437.708 401.4679)" font-family="'MyriadPro-Regular'" font-size="8.16">100</text>
		<text transform="matrix(1 0 0 1 406.4581 354.6943)" font-family="'MyriadPro-Regular'" font-size="8.16">Counter</text>
		<text transform="matrix(1 0 0 1 403.0576 364.4864)" font-family="'MyriadPro-Regular'" font-size="8.16">pasta/min</text>
	</g>
	<g>
		<circle fill="#FFFFFF" cx="147.1" cy="503.4" r="48.6"/>
		<path fill="none" stroke="#DFEEC3" stroke-miterlimit="10" d="M147.1,454.9c-26.9,0-48.6,21.8-48.6,48.6s21.8,48.6,48.6,48.6
			s48.6-21.8,48.6-48.6C195.6,476.6,173.9,454.9,147.1,454.9z M147.1,546.9c-24,0-43.5-19.4-43.5-43.5s19.4-43.5,43.5-43.5
			s43.5,19.4,43.5,43.5S171.1,546.9,147.1,546.9z"/>
		<path fill="#CAE39B" stroke="#CAE39B" stroke-miterlimit="10" d="M103.6,503.4L103.6,503.4c0-24,19.4-43.5,43.5-43.5
			s43.5,19.4,43.5,43.5l0,0h5.2l0,0c0-26.9-21.8-48.6-48.6-48.6s-48.6,21.8-48.6,48.6l0,0H103.6z"/>
		<path fill="#96C837" stroke="#96C837" stroke-miterlimit="10" d="M181.5,537.8c8.8-8.8,14.2-20.9,14.2-34.3h-5.2
			c0,12-4.9,22.8-12.7,30.7L181.5,537.8z"/>
		<path fill="#EAF4D7" stroke="#EAF4D7" stroke-miterlimit="10" d="M116.4,534.2c-7.9-7.9-12.7-18.7-12.7-30.7h-5.2
			c0,13.4,5.4,25.6,14.2,34.3L116.4,534.2z"/>
		<circle fill="#00508C" cx="147.1" cy="503.4" r="4.8"/>
		<g>
			<line fill="none" x1="147.1" y1="552.4" x2="147.1" y2="540.2"/>
			<line fill="none" stroke="#96C837" stroke-miterlimit="10" x1="147.1" y1="454.5" x2="147.1" y2="460.3"/>
			<line fill="none" stroke="#96C837" stroke-miterlimit="10" x1="190.2" y1="503.4" x2="196" y2="503.4"/>
			<line fill="none" stroke="#96C837" stroke-miterlimit="10" x1="98.5" y1="503.4" x2="104" y2="503.4"/>
			<line fill="none" stroke="#96C837" stroke-miterlimit="10" x1="121.2" y1="529.4" x2="112.5" y2="538.1"/>
			<line fill="none" stroke="#96C837" stroke-miterlimit="10" x1="181.7" y1="468.8" x2="177.6" y2="473"/>
			<line fill="none" stroke="#96C837" stroke-miterlimit="10" x1="173.1" y1="529.4" x2="181.7" y2="538.1"/>
			<line fill="none" stroke="#96C837" stroke-miterlimit="10" x1="112.5" y1="468.9" x2="116.6" y2="473"/>
		</g>
		<text transform="matrix(1 0 0 1 120.3321 528.0762)" font-family="'MyriadPro-Regular'" font-size="8.16">0</text>
		<text transform="matrix(1 0 0 1 164.5166 527.6484)" font-family="'MyriadPro-Regular'" font-size="8.16">100</text>
		<text transform="matrix(1 0 0 1 136.3916 480.8751)" font-family="'MyriadPro-Regular'" font-size="8.16">Speed</text>
		<text transform="matrix(1 0 0 1 135.7119 490.6671)" font-family="'MyriadPro-Regular'" font-size="8.16">m/min</text>
	</g>
	<g>
		<path fill="#FFFFFF" stroke="#FF5A00" stroke-width="2" stroke-miterlimit="10" d="M317.8,321.9h-23.6l-12.3,23.6
			c-1.2,2.3,0.5,5.2,3.1,5.2h42c2.7,0,4.4-2.8,3.1-5.2L317.8,321.9z"/>
		<path fill="#FFFFFF" stroke="#FF5A00" stroke-width="2" stroke-miterlimit="10" d="M327.9,321.9h-43.8c-4.7,0-8.5-3.8-8.5-8.5v-49
			c0-4.7,3.8-8.5,8.5-8.5h43.8c4.7,0,8.5,3.8,8.5,8.5v49C336.4,318.1,332.6,321.9,327.9,321.9z"/>
	</g>
	
		<linearGradient id="SVGID_3_" gradientUnits="userSpaceOnUse" x1="-414.4185" y1="135.4084" x2="-291.5206" y2="135.4084" gradientTransform="matrix(0.6006 -0.3189 -0.3189 -0.6006 504.5067 250.8089)">
		<stop  offset="1.281415e-003" style="stop-color:#A6A8AB"/>
		<stop  offset="1" style="stop-color:#929497;stop-opacity:0"/>
	</linearGradient>
	<polygon fill="url(#SVGID_3_)" points="304.4,296.7 227.9,330.7 230.2,248.3 	"/>
	<g>
		<circle fill="#FFFFFF" cx="203" cy="288.6" r="48.6"/>
		<path fill="none" stroke="#DFEEC3" stroke-miterlimit="10" d="M203,239.9c-26.9,0-48.6,21.8-48.6,48.6S176.3,337,203,337
			s48.6-21.8,48.6-48.6S229.9,239.9,203,239.9z M203,332c-24,0-43.5-19.4-43.5-43.5s19.4-43.5,43.5-43.5s43.5,19.4,43.5,43.5
			S227.1,332,203,332z"/>
		<path fill="#CAE39B" stroke="#CAE39B" stroke-miterlimit="10" d="M159.6,288.6L159.6,288.6c0-24,19.4-43.5,43.5-43.5
			s43.5,19.4,43.5,43.5l0,0h5.2l0,0c0-26.9-21.8-48.6-48.6-48.6s-48.6,21.8-48.6,48.6l0,0H159.6z"/>
		<path fill="#96C837" stroke="#96C837" stroke-miterlimit="10" d="M237.4,322.9c8.8-8.8,14.2-20.9,14.2-34.3h-5.2
			c0,12-4.9,22.8-12.7,30.7L237.4,322.9z"/>
		<path fill="#EAF4D7" stroke="#EAF4D7" stroke-miterlimit="10" d="M172.3,319.3c-7.9-7.9-12.7-18.7-12.7-30.7h-5.2
			c0,13.4,5.4,25.6,14.2,34.3L172.3,319.3z"/>
		<circle fill="#00508C" cx="203" cy="288.6" r="4.8"/>
		<g>
			<line fill="none" x1="203" y1="337.5" x2="203" y2="325.2"/>
			<line fill="none" stroke="#96C837" stroke-miterlimit="10" x1="203" y1="239.6" x2="203" y2="245.4"/>
			<line fill="none" stroke="#96C837" stroke-miterlimit="10" x1="246.2" y1="288.6" x2="251.9" y2="288.6"/>
			<line fill="none" stroke="#96C837" stroke-miterlimit="10" x1="154.5" y1="288.6" x2="159.9" y2="288.6"/>
			<line fill="none" stroke="#96C837" stroke-miterlimit="10" x1="177.1" y1="314.5" x2="168.4" y2="323.2"/>
			<line fill="none" stroke="#96C837" stroke-miterlimit="10" x1="237.7" y1="253.9" x2="233.5" y2="258.1"/>
			<line fill="none" stroke="#96C837" stroke-miterlimit="10" x1="229" y1="314.5" x2="237.7" y2="323.1"/>
			<line fill="none" stroke="#96C837" stroke-miterlimit="10" x1="168.4" y1="253.9" x2="172.6" y2="258.1"/>
		</g>
		<text transform="matrix(1 0 0 1 176.2617 313.1729)" font-family="'MyriadPro-Regular'" font-size="8.16">0</text>
		<text transform="matrix(1 0 0 1 220.4463 312.7462)" font-family="'MyriadPro-Regular'" font-size="8.16">100</text>
		<text transform="matrix(1 0 0 1 183.5576 269.416)" font-family="'MyriadPro-Regular'" font-size="8.16">Confidence</text>
	</g>
</g>
</svg>
