<?xml version="1.0" encoding="utf-8"?>
<!-- Generator: Adobe Illustrator 18.0.0, SVG Export Plug-In . SVG Version: 6.00 Build 0)  -->
<!DOCTYPE svg PUBLIC "-//W3C//DTD SVG 1.1//EN" "http://www.w3.org/Graphics/SVG/1.1/DTD/svg11.dtd">
<svg version="1.1" id="Layer_1" xmlns="http://www.w3.org/2000/svg" xmlns:xlink="http://www.w3.org/1999/xlink" x="0px" y="0px"
	 viewBox="0 0 42.7 43.5" enable-background="new 0 0 42.7 43.5" xml:space="preserve">
<path fill="#6B6C6C" d="M37.4,24.6l4.2-0.9l0-3.1l-4.2-0.9c-0.2-1.2-0.5-2.3-0.9-3.3l3.2-2.9l-1.6-2.7L34,12.2
	c-0.7-0.9-1.5-1.6-2.4-2.3L33,5.6l-2.7-1.5l-3,3.4c-1-0.3-2-0.6-3.1-0.7l-1-4.5l-3.1,0l-1,4.7c-1,0.2-1.9,0.5-2.8,0.8L13,4.1
	l-2.7,1.6l1.6,4.7c-0.7,0.6-1.3,1.3-1.9,2l-4.9-1.5l-1.5,2.7L7.5,17c-0.3,0.8-0.5,1.7-0.6,2.5l-5.1,1.1l0,3.1l5.1,1.1
	c0.1,0.9,0.4,1.7,0.7,2.5l-3.9,3.6l1.6,2.7l4.9-1.6c0.6,0.7,1.2,1.3,1.8,1.9l-1.6,4.9l2.7,1.5l3.3-3.7c0.9,0.3,1.8,0.6,2.7,0.8
	l1.1,4.8l3.1,0l1-4.7c1-0.1,2-0.4,3-0.7l3.2,3.5l2.7-1.6l-1.4-4.3c0.9-0.7,1.6-1.4,2.4-2.2l4.3,1.4l1.5-2.7l-3.2-2.9
	C36.9,26.8,37.2,25.7,37.4,24.6z M22.2,28.1c-3.3,0-6.1-2.7-6.1-6c0-3.3,2.7-6.1,6-6.1c3.3,0,6.1,2.7,6.1,6
	C28.2,25.4,25.5,28.1,22.2,28.1z"/>
</svg>
